<?xml version="1.0" encoding="UTF-8"?>
<svg id="Layer_1" xmlns="http://www.w3.org/2000/svg" width="160" height="160" version="1.1" viewBox="0 0 160 160">
  <!-- Generator: Adobe Illustrator 29.6.1, SVG Export Plug-In . SVG Version: 2.1.1 Build 9)  -->
  <path d="M141.32,79.82s-30.07,30.67-32.13,32.76h18.72l32.09-32.75-31.78-32.42h-18.8c1.92,1.89,31.9,32.41,31.9,32.41" fill="#9d9e9f"/>
  <path d="M82.93,47.41h-37.41c1.92,1.89,31.9,32.41,31.9,32.41,0,0-30.07,30.67-32.13,32.76h37.33l32.09-32.75-31.78-32.42h0Z" fill="#f58220"/>
  <path d="M93.88,126.07c-8.06,5.05-17.54,7.96-27.69,7.96-29.27,0-53-24.21-53-54.08s23.73-54.08,53-54.08c10.21,0,19.73,2.95,27.82,8.05h21.04c-12.12-13.33-29.44-21.66-48.66-21.66C29.72,12.26,0,42.59,0,80s29.72,67.73,66.39,67.73c19.22,0,36.54-8.34,48.66-21.66h-21.17Z" fill="#9d9e9f"/>
  <metadata>
    <sfw xmlns="http://ns.adobe.com/SaveForWeb/1.0/">
      <slices/>
      <sliceSourceBounds x="217.64" y="-488.68" width="160" height="135.47" bottomLeftOrigin="true"/>
    </sfw>
  </metadata>
</svg>