<?xml version="1.0" encoding="UTF-8"?>
<svg id="Layer_1" xmlns="http://www.w3.org/2000/svg" width="160" height="160" version="1.1" viewBox="0 0 160 160">
  <!-- Generator: Adobe Illustrator 29.6.1, SVG Export Plug-In . SVG Version: 2.1.1 Build 9)  -->
  <path d="M125.28,60.77s-22.38,22.83-23.92,24.39h13.93l23.89-24.37-23.65-24.13h-13.99c1.43,1.4,23.74,24.12,23.74,24.12" fill="#9d9e9f"/>
  <path d="M81.82,36.65h-27.84c1.43,1.4,23.74,24.12,23.74,24.12,0,0-22.38,22.83-23.92,24.39h27.79l23.89-24.37-23.65-24.13h0Z" fill="#f58220"/>
  <path d="M89.96,95.19c-6,3.76-13.05,5.93-20.61,5.93-21.79,0-39.45-18.02-39.45-40.25s17.66-40.25,39.45-40.25c7.6,0,14.69,2.19,20.71,5.99h15.66c-9.02-9.92-21.91-16.12-36.22-16.12-27.29,0-49.41,22.57-49.41,50.42s22.12,50.42,49.41,50.42c14.31,0,27.2-6.21,36.22-16.12h-15.76Z" fill="#9d9e9f"/>
  <path d="M15.69,140.01c0-1.72-.62-3.2-1.86-4.41-1.21-1.24-2.69-1.86-4.41-1.86s-3.2.62-4.44,1.86c-1.21,1.21-1.83,2.69-1.83,4.41s.62,3.2,1.83,4.44c1.24,1.21,2.72,1.83,4.44,1.83s3.2-.62,4.41-1.83,1.86-2.72,1.86-4.44M16.28,140.01c0,1.86-.67,3.5-2.02,4.87-1.35,1.32-2.99,1.99-4.84,1.99s-3.5-.67-4.87-1.99c-1.32-1.37-1.99-3.01-1.99-4.87s.67-3.5,1.99-4.84c1.37-1.35,2.99-2.02,4.87-2.02s3.5.67,4.84,2.02c1.35,1.35,2.02,2.96,2.02,4.84M18.27,140.01c0-2.45-.86-4.49-2.61-6.24-1.75-1.75-3.77-2.58-6.24-2.58s-4.52.83-6.24,2.58c-1.75,1.75-2.58,3.79-2.58,6.24s.83,4.49,2.58,6.24c1.75,1.75,3.77,2.58,6.24,2.58s4.49-.83,6.24-2.58c1.75-1.72,2.61-3.77,2.61-6.24M18.87,140.01c0,2.64-.94,4.84-2.8,6.65-1.83,1.86-4.04,2.77-6.65,2.77s-4.82-.91-6.65-2.77c-1.86-1.83-2.77-4.04-2.77-6.65s.92-4.82,2.77-6.65c1.8-1.86,4.01-2.77,6.65-2.77s4.82.91,6.65,2.77c1.86,1.83,2.8,4.06,2.8,6.65" fill="#f58220"/>
  <path d="M37.87,131.16h-1.96v5.76l1.96,1.78v-7.54h0ZM38.46,130.57v9.45l-3.15-2.83v-6.62h3.15ZM23.36,148.81h1.94v-12l1,.89,11.57,10.42v-3.15l-14.51-13.08v16.93h0ZM22.77,130.57l15.69,14.13v4.74l-12.57-11.3v11.28h-3.12v-18.84h0Z" fill="#9d9e9f"/>
  <path d="M53.13,146.8l-1.99,1.96h4.9v-1.96h-2.91ZM56.62,146.2v3.15h-6.92l3.18-3.15h3.74ZM56.03,131.08h-13.67l8.83,8.83-.43.43-8.4,8.42h2.72l8.88-8.85-6.86-6.89h8.93v-1.94h0ZM56.62,130.49v3.12h-8.13l6.3,6.3-9.47,9.45h-4.39l9.42-9.45-9.42-9.42h15.69Z" fill="#9d9e9f"/>
  <path d="M78.02,148.84l-6.14-7.89-1.27,1.61,4.9,6.27h2.5ZM71.88,139.07l6.14-7.89h-2.5l-4.9,6.27,1.27,1.61h0ZM71.88,140.01l7.35,9.42h-3.98l-5.38-6.86,2.02-2.56h0ZM71.88,140.01l-2.02-2.56,5.38-6.86h3.98l-7.35,9.42h0ZM69.11,142.57l-1.24-1.61-6.16,7.89h2.53l4.87-6.27h0ZM69.11,137.46l-4.87-6.27h-2.53l6.16,7.86,1.24-1.59h0ZM67.87,140.01l1.99,2.56-5.36,6.86h-4.01l7.37-9.42h0ZM69.87,137.46l-1.99,2.56-7.37-9.42h4.01l5.36,6.86h0Z" fill="#9d9e9f"/>
  <path d="M112.82,131.19h-2.18l-5.76,11.49-.51,1.05-.54-1.05-3.63-7.27-1.1,2.21,5.27,10.5,8.45-16.93h0ZM113.79,130.59l-9.42,18.84-5.92-11.81,1.75-3.53,4.17,8.32,5.92-11.81h3.5ZM91.91,142.41l-5.65-11.22h-2.21l6.76,13.43,1.1-2.21h0ZM86.61,130.59l5.95,11.81-1.75,3.53-7.7-15.34h3.5Z" fill="#9d9e9f"/>
  <path d="M133.35,148.76h2.21l-.97-1.94h-2.21l.97,1.94h0ZM136.5,149.35h-3.5l-1.59-3.12h3.53l1.56,3.12h0ZM130.2,142.49h2.21l-5.33-10.66-5.33,10.66h2.21l2.58-5.19.54-1.05.54,1.05,2.58,5.19h0ZM133.35,143.08h-3.5l-2.77-5.54-2.77,5.54h-3.53l6.3-12.57,6.27,12.57h0ZM119.57,146.82l-.97,1.94h2.21l.97-1.94h-2.21ZM119.22,146.23h3.5l-1.56,3.12h-3.5l1.56-3.12h0Z" fill="#9d9e9f"/>
  <path d="M148.77,148.92h1.96v-1.96h-1.96v1.96h0ZM148.18,146.37h3.15v3.15h-3.15v-3.15h0ZM149.77,141.68l8.13-10.42h-2.5l-5.19,6.62-.46.62-.46-.62-5.17-6.62h-2.53l8.18,10.42h0ZM149.77,142.65l-9.39-11.98h4.01l5.36,6.86,5.38-6.86h3.98l-9.34,11.98h0Z" fill="#9d9e9f"/>
  <polygon points="69.87 138.29 71.23 140.01 69.87 141.74 68.52 140.01 69.87 138.29 69.87 138.29" fill="#f58220"/>
  <metadata>
    <sfw xmlns="http://ns.adobe.com/SaveForWeb/1.0/">
      <slices/>
      <sliceSourceBounds x="217.64" y="-490.46" width="159.11" height="139.03" bottomLeftOrigin="true"/>
    </sfw>
  </metadata>
</svg>